<mxfile host="app.diagrams.net" modified="2021-05-14T12:08:44.681Z" agent="5.0 (Windows NT 10.0; Win64; x64) AppleWebKit/537.36 (KHTML, like Gecko) Chrome/90.0.4430.212 Safari/537.36" etag="T0A3r-V3RewmrzLTV_So" version="14.6.13" type="github">
  <diagram id="WNNpIJwCdHIz6fE7KfNp" name="Page-1">
    <mxGraphModel dx="1038" dy="556" grid="1" gridSize="10" guides="1" tooltips="1" connect="1" arrows="1" fold="1" page="1" pageScale="1" pageWidth="827" pageHeight="1169" math="0" shadow="0">
      <root>
        <mxCell id="0" />
        <mxCell id="1" parent="0" />
        <mxCell id="UW55z28oBWZ--iQepkII-14" style="edgeStyle=none;rounded=0;orthogonalLoop=1;jettySize=auto;html=1;exitX=1;exitY=1;exitDx=0;exitDy=0;entryX=0.104;entryY=0.335;entryDx=0;entryDy=0;entryPerimeter=0;" edge="1" parent="1" source="UW55z28oBWZ--iQepkII-1" target="UW55z28oBWZ--iQepkII-4">
          <mxGeometry relative="1" as="geometry" />
        </mxCell>
        <mxCell id="UW55z28oBWZ--iQepkII-17" style="edgeStyle=none;rounded=0;orthogonalLoop=1;jettySize=auto;html=1;exitX=0.5;exitY=1;exitDx=0;exitDy=0;" edge="1" parent="1" source="UW55z28oBWZ--iQepkII-1" target="UW55z28oBWZ--iQepkII-3">
          <mxGeometry relative="1" as="geometry" />
        </mxCell>
        <mxCell id="UW55z28oBWZ--iQepkII-19" style="edgeStyle=none;rounded=0;orthogonalLoop=1;jettySize=auto;html=1;exitX=1;exitY=0.5;exitDx=0;exitDy=0;" edge="1" parent="1" source="UW55z28oBWZ--iQepkII-1" target="UW55z28oBWZ--iQepkII-2">
          <mxGeometry relative="1" as="geometry" />
        </mxCell>
        <mxCell id="UW55z28oBWZ--iQepkII-1" value="Central Idea" style="ellipse;whiteSpace=wrap;html=1;align=center;newEdgeStyle={&quot;edgeStyle&quot;:&quot;entityRelationEdgeStyle&quot;,&quot;startArrow&quot;:&quot;none&quot;,&quot;endArrow&quot;:&quot;none&quot;,&quot;segment&quot;:10,&quot;curved&quot;:1};treeFolding=1;treeMoving=1;" vertex="1" parent="1">
          <mxGeometry x="140" y="150" width="100" height="40" as="geometry" />
        </mxCell>
        <mxCell id="UW55z28oBWZ--iQepkII-2" value="Central Idea" style="ellipse;whiteSpace=wrap;html=1;align=center;newEdgeStyle={&quot;edgeStyle&quot;:&quot;entityRelationEdgeStyle&quot;,&quot;startArrow&quot;:&quot;none&quot;,&quot;endArrow&quot;:&quot;none&quot;,&quot;segment&quot;:10,&quot;curved&quot;:1};treeFolding=1;treeMoving=1;" vertex="1" parent="1">
          <mxGeometry x="440" y="140" width="100" height="40" as="geometry" />
        </mxCell>
        <mxCell id="UW55z28oBWZ--iQepkII-13" style="edgeStyle=none;rounded=0;orthogonalLoop=1;jettySize=auto;html=1;exitX=0.5;exitY=0;exitDx=0;exitDy=0;entryX=0;entryY=1;entryDx=0;entryDy=0;" edge="1" parent="1" source="UW55z28oBWZ--iQepkII-3" target="UW55z28oBWZ--iQepkII-2">
          <mxGeometry relative="1" as="geometry" />
        </mxCell>
        <mxCell id="UW55z28oBWZ--iQepkII-18" style="edgeStyle=none;rounded=0;orthogonalLoop=1;jettySize=auto;html=1;exitX=1;exitY=0.5;exitDx=0;exitDy=0;entryX=0.088;entryY=0.305;entryDx=0;entryDy=0;entryPerimeter=0;" edge="1" parent="1" source="UW55z28oBWZ--iQepkII-3" target="UW55z28oBWZ--iQepkII-4">
          <mxGeometry relative="1" as="geometry" />
        </mxCell>
        <mxCell id="UW55z28oBWZ--iQepkII-3" value="Central Idea" style="ellipse;whiteSpace=wrap;html=1;align=center;newEdgeStyle={&quot;edgeStyle&quot;:&quot;entityRelationEdgeStyle&quot;,&quot;startArrow&quot;:&quot;none&quot;,&quot;endArrow&quot;:&quot;none&quot;,&quot;segment&quot;:10,&quot;curved&quot;:1};treeFolding=1;treeMoving=1;" vertex="1" parent="1">
          <mxGeometry x="60" y="350" width="100" height="40" as="geometry" />
        </mxCell>
        <mxCell id="UW55z28oBWZ--iQepkII-4" value="Central Idea" style="ellipse;whiteSpace=wrap;html=1;align=center;newEdgeStyle={&quot;edgeStyle&quot;:&quot;entityRelationEdgeStyle&quot;,&quot;startArrow&quot;:&quot;none&quot;,&quot;endArrow&quot;:&quot;none&quot;,&quot;segment&quot;:10,&quot;curved&quot;:1};treeFolding=1;treeMoving=1;" vertex="1" parent="1">
          <mxGeometry x="290" y="370" width="100" height="40" as="geometry" />
        </mxCell>
        <mxCell id="UW55z28oBWZ--iQepkII-15" style="edgeStyle=none;rounded=0;orthogonalLoop=1;jettySize=auto;html=1;exitX=0;exitY=0.5;exitDx=0;exitDy=0;entryX=1;entryY=0.5;entryDx=0;entryDy=0;" edge="1" parent="1" source="UW55z28oBWZ--iQepkII-10" target="UW55z28oBWZ--iQepkII-4">
          <mxGeometry relative="1" as="geometry" />
        </mxCell>
        <mxCell id="UW55z28oBWZ--iQepkII-16" style="edgeStyle=none;rounded=0;orthogonalLoop=1;jettySize=auto;html=1;exitX=0.5;exitY=0;exitDx=0;exitDy=0;entryX=0.5;entryY=1;entryDx=0;entryDy=0;" edge="1" parent="1" source="UW55z28oBWZ--iQepkII-10" target="UW55z28oBWZ--iQepkII-2">
          <mxGeometry relative="1" as="geometry" />
        </mxCell>
        <mxCell id="UW55z28oBWZ--iQepkII-10" value="Attribute" style="ellipse;whiteSpace=wrap;html=1;align=center;fontStyle=4;" vertex="1" parent="1">
          <mxGeometry x="490" y="250" width="100" height="40" as="geometry" />
        </mxCell>
      </root>
    </mxGraphModel>
  </diagram>
</mxfile>
